<svg width="18" height="19" viewBox="0 0 18 19" fill="none" xmlns="http://www.w3.org/2000/svg">
<path d="M11.5447 3.54268L11.043 4.10015L11.5447 3.54268ZM14.5138 6.21485L14.0121 6.77232L14.5138 6.21485ZM16.2405 8.11801L15.5554 8.42314L15.5554 8.42314L16.2405 8.11801ZM2.37868 16.1238L2.90901 15.5934L2.90901 15.5934L2.37868 16.1238ZM15.6213 16.1238L15.091 15.5934L15.091 15.5934L15.6213 16.1238ZM10.5 16.2524H7.5V17.7524H10.5V16.2524ZM2.25 11.0024V8.00244H0.75V11.0024H2.25ZM15.75 10.6746V11.0024H17.25V10.6746H15.75ZM11.043 4.10015L14.0121 6.77232L15.0155 5.65738L12.0464 2.98521L11.043 4.10015ZM17.25 10.6746C17.25 9.42491 17.2651 8.57522 16.9256 7.81288L15.5554 8.42314C15.7349 8.82615 15.75 9.29241 15.75 10.6746H17.25ZM14.0121 6.77232C15.0394 7.69697 15.3759 8.02013 15.5554 8.42314L16.9256 7.81288C16.5861 7.05055 15.9444 6.49339 15.0155 5.65738L14.0121 6.77232ZM7.52234 2.75244C8.72289 2.75244 9.12918 2.76402 9.48822 2.9018L10.0256 1.50136C9.34676 1.24086 8.6093 1.25244 7.52234 1.25244V2.75244ZM12.0464 2.98521C11.2424 2.26158 10.7044 1.76183 10.0256 1.50136L9.48822 2.9018C9.84736 3.03961 10.1552 3.30116 11.043 4.10015L12.0464 2.98521ZM7.5 16.2524C6.06458 16.2524 5.06347 16.2508 4.30812 16.1493C3.57435 16.0506 3.18577 15.8702 2.90901 15.5934L1.84835 16.6541C2.45027 17.256 3.20814 17.5149 4.10825 17.6359C4.98678 17.754 6.10699 17.7524 7.5 17.7524V16.2524ZM0.75 11.0024C0.75 12.3955 0.748407 13.5157 0.866523 14.3942C0.987539 15.2943 1.24643 16.0522 1.84835 16.6541L2.90901 15.5934C2.63225 15.3167 2.4518 14.9281 2.35315 14.1943C2.25159 13.439 2.25 12.4379 2.25 11.0024H0.75ZM10.5 17.7524C11.893 17.7524 13.0132 17.754 13.8918 17.6359C14.7919 17.5149 15.5497 17.256 16.1517 16.6541L15.091 15.5934C14.8142 15.8702 14.4257 16.0506 13.6919 16.1493C12.9365 16.2508 11.9354 16.2524 10.5 16.2524V17.7524ZM15.75 11.0024C15.75 12.4379 15.7484 13.439 15.6469 14.1943C15.5482 14.9281 15.3678 15.3167 15.091 15.5934L16.1516 16.6541C16.7536 16.0522 17.0125 15.2943 17.1335 14.3942C17.2516 13.5157 17.25 12.3955 17.25 11.0024H15.75ZM2.25 8.00244C2.25 6.56703 2.25159 5.56591 2.35315 4.81056C2.4518 4.07679 2.63225 3.68821 2.90901 3.41145L1.84835 2.35079C1.24643 2.95271 0.987539 3.71058 0.866523 4.61069C0.748407 5.48922 0.75 6.60943 0.75 8.00244H2.25ZM7.52234 1.25244C6.12181 1.25244 4.99627 1.25086 4.11428 1.3689C3.21128 1.48976 2.45085 1.74829 1.84835 2.35079L2.90901 3.41145C3.18519 3.13527 3.57493 2.95446 4.31326 2.85565C5.0726 2.75402 6.07955 2.75244 7.52234 2.75244V1.25244Z" fill="white"/>
<path d="M9.75 2.37744V4.25244C9.75 6.02021 9.75 6.90409 10.2992 7.45327C10.8483 8.00244 11.7322 8.00244 13.5 8.00244H16.5" stroke="white" stroke-width="1.5"/>
<path d="M5.25 11.0024L4.5 11.7524L5.25 12.5024M8.625 12.5024L9.375 13.2524L8.625 14.0024M7.5 11.0024L6.375 14.0024" stroke="white" stroke-width="1.5" stroke-linecap="round" stroke-linejoin="round"/>
</svg>
