<svg width="18" height="18" viewBox="0 0 18 18" fill="none" xmlns="http://www.w3.org/2000/svg">
<path d="M7.191 14.7646C6.894 15.0346 6.58733 15.3677 6.462 15.3846C6.33668 15.4015 6.20587 15.3222 5.92672 15.1637L4.5 14.3596C4.14 14.1796 4.122 14.0446 4.122 13.9996C4.122 13.9546 4.122 13.7641 4.239 13.3729C4.61384 11.9296 3.735 10.3996 2.24175 10.0096C1.85033 9.90404 1.65465 9.85124 1.57733 9.75029C1.5 9.64941 1.5 9.48704 1.5 9.16236V7.71974C1.5 7.39507 1.5 7.23269 1.57733 7.13174C1.65465 7.03087 1.85033 6.97807 2.24175 6.87254C3.70478 6.47807 4.62105 4.99166 4.24365 3.53838C4.13992 3.13868 4.08802 2.93883 4.1376 2.82164C4.18717 2.70446 4.32938 2.6237 4.61385 2.46218L5.90738 1.72775C6.1866 1.56925 6.32618 1.49 6.45143 1.50687C6.57675 1.52375 6.71805 1.66475 7.00073 1.94676C8.0952 3.0386 9.906 3.03864 11.0004 1.94683C11.2832 1.66483 11.4245 1.52382 11.5497 1.50695C11.675 1.49007 11.8146 1.56932 12.0938 1.72783L13.3874 2.46225C13.6718 2.62379 13.814 2.70455 13.8636 2.82175C13.9132 2.93895 13.8613 3.13877 13.7575 3.53843C13.3799 4.99166 14.2954 6.48614 15.7582 6.88064C16.1497 6.98618 16.3454 7.04069 16.4227 7.14164C16.5 7.24251 16.5 7.56396 16.5 7.88864" stroke="white" stroke-width="1.5" stroke-linecap="round"/>
<path d="M11.25 12.9196C11.25 12.9196 12 13.1326 12.375 13.8826C12.375 13.8826 13.1971 12.0076 14.256 11.6326" stroke="white" stroke-width="1.5" stroke-linecap="round" stroke-linejoin="round"/>
<path d="M16.5 12.7546C16.5 14.8257 14.821 16.5046 12.75 16.5046C10.679 16.5046 9 14.8257 9 12.7546C9 10.6836 10.679 9.00464 12.75 9.00464C14.821 9.00464 16.5 10.6836 16.5 12.7546Z" stroke="white" stroke-width="1.5" stroke-linecap="round"/>
<path d="M11.16 6.97949C10.575 6.16949 9.693 5.85449 8.973 5.85449C7.623 5.8725 6.39001 6.98774 6.39001 8.43749C6.39001 9.23677 6.61501 9.81449 7.24501 10.4445" stroke="white" stroke-width="1.5" stroke-linecap="round"/>
</svg>
