<svg width="13" height="14" viewBox="0 0 13 14" fill="none" xmlns="http://www.w3.org/2000/svg">
<path d="M4.33331 7.58329C4.63247 7.58329 4.87498 7.32213 4.87498 6.99996C4.87498 6.67779 4.63247 6.41663 4.33331 6.41663C4.03416 6.41663 3.79165 6.67779 3.79165 6.99996C3.79165 7.32213 4.03416 7.58329 4.33331 7.58329Z" fill="#D3D6DF"/>
<path d="M7.04165 6.99996C7.04165 7.32213 6.79913 7.58329 6.49998 7.58329C6.20082 7.58329 5.95831 7.32213 5.95831 6.99996C5.95831 6.67779 6.20082 6.41663 6.49998 6.41663C6.79913 6.41663 7.04165 6.67779 7.04165 6.99996Z" fill="#D3D6DF"/>
<path d="M8.66665 7.58329C8.9658 7.58329 9.20831 7.32213 9.20831 6.99996C9.20831 6.67779 8.9658 6.41663 8.66665 6.41663C8.36749 6.41663 8.12498 6.67779 8.12498 6.99996C8.12498 7.32213 8.36749 7.58329 8.66665 7.58329Z" fill="#D3D6DF"/>
<path d="M4.87498 9.33329C4.87498 9.65546 4.63247 9.91663 4.33331 9.91663C4.03416 9.91663 3.79165 9.65546 3.79165 9.33329C3.79165 9.01113 4.03416 8.74996 4.33331 8.74996C4.63247 8.74996 4.87498 9.01113 4.87498 9.33329Z" fill="#D3D6DF"/>
<path d="M6.49998 9.91663C6.79913 9.91663 7.04165 9.65546 7.04165 9.33329C7.04165 9.01113 6.79913 8.74996 6.49998 8.74996C6.20082 8.74996 5.95831 9.01113 5.95831 9.33329C5.95831 9.65546 6.20082 9.91663 6.49998 9.91663Z" fill="#D3D6DF"/>
<path fill-rule="evenodd" clip-rule="evenodd" d="M4.33331 1.74996C4.33331 1.42779 4.0908 1.16663 3.79165 1.16663C3.49249 1.16663 3.24998 1.42779 3.24998 1.74996H2.16665C1.56834 1.74996 1.08331 2.27229 1.08331 2.91663V11.0833C1.08331 11.7276 1.56834 12.25 2.16665 12.25H10.8333C11.4316 12.25 11.9166 11.7276 11.9166 11.0833V2.91663C11.9166 2.27229 11.4316 1.74996 10.8333 1.74996H9.74998C9.74998 1.42779 9.50747 1.16663 9.20831 1.16663C8.90916 1.16663 8.66665 1.42779 8.66665 1.74996H4.33331ZM2.16665 4.08329V2.91663H10.8333V4.08329H2.16665ZM2.16665 5.24996V11.0833H7.67626L10.8333 7.68339V5.24996H2.16665ZM10.8333 9.33331L9.20833 11.0833H10.8333V9.33331Z" fill="#D3D6DF"/>
</svg>
