<svg width="19" height="20" viewBox="0 0 19 20" fill="none" xmlns="http://www.w3.org/2000/svg">
<path fill-rule="evenodd" clip-rule="evenodd" d="M0 19C0 19.5523 0.447715 20 1 20C1.55228 20 2 19.5523 2 19V15H8V17.5C8 18.0523 8.44772 18.5 9 18.5H18C18.3173 18.5 18.6159 18.3494 18.8044 18.0941C18.9929 17.8388 19.0491 17.5092 18.9558 17.2059L17.05 11.0122L18.9487 5.31623C19.0503 5.01128 18.9992 4.67606 18.8112 4.41529C18.6233 4.15452 18.3214 4 18 4H13V3C13 2.44772 12.5523 2 12 2H2L2 1C2 0.447716 1.55228 0 0.999999 0C0.447714 0 0 0.447716 0 1V19ZM2 4V13H11V4H2ZM13 14V6H16.6126L15.0513 10.6838C14.9854 10.8815 14.9829 11.0949 15.0442 11.2941L16.646 16.5H10V15H12C12.5523 15 13 14.5523 13 14Z" fill="white"/>
</svg>
