<svg width="10" height="11" viewBox="0 0 10 11" fill="none" xmlns="http://www.w3.org/2000/svg">
<path d="M5.35398 0.987651V1.00987C5.2429 0.921004 5.1096 0.854357 4.97631 0.854357C4.8208 0.854357 4.68751 0.898789 4.59864 0.987651L0.288804 5.31971C0.177725 5.43078 0.133294 5.56408 0.133294 5.69737C0.133294 5.85288 0.177725 5.98618 0.288804 6.07504L0.777548 6.586C0.866411 6.67486 0.999705 6.71929 1.15521 6.71929C1.28851 6.71929 1.4218 6.67486 1.53288 6.56378L4.97631 3.14257L8.41974 6.56378C8.5086 6.67486 8.64189 6.71929 8.7974 6.71929C8.9307 6.71929 9.06399 6.67486 9.17507 6.56378L9.66381 6.07504C9.75268 5.98618 9.81932 5.85288 9.81932 5.69737C9.81932 5.56408 9.75268 5.43078 9.66381 5.31971L5.35398 0.987651ZM4.59864 5.25306V5.27527C4.68751 5.18641 4.8208 5.11977 4.97631 5.11977C5.1096 5.11977 5.2429 5.1642 5.35398 5.25306L9.66381 9.58511C9.75268 9.69619 9.81932 9.82949 9.81932 9.96278C9.81932 10.1183 9.75268 10.2516 9.66381 10.3404L9.17507 10.8292C9.06399 10.9403 8.9307 10.9847 8.7974 10.9847C8.64189 10.9847 8.5086 10.9403 8.41974 10.8292L4.97631 7.40798L1.53288 10.8292C1.4218 10.9625 1.28851 11.0069 1.15521 11.0069C0.999705 11.0069 0.866411 10.9625 0.777548 10.8292L0.288804 10.3404C0.177725 10.2516 0.133294 10.1183 0.133294 9.96278C0.133294 9.82949 0.177725 9.69619 0.288804 9.58511L4.59864 5.25306Z" fill="#1BB9F4"/>
</svg>
