<svg width="32" height="32" viewBox="0 0 32 32" fill="none" xmlns="http://www.w3.org/2000/svg">
<circle cx="16" cy="16" r="16" fill="#EFF8FF"/>
<path fill-rule="evenodd" clip-rule="evenodd" d="M17.8389 15.3363C19.009 14.6503 19.7938 13.3867 19.7938 11.9413C19.7938 9.7646 18.0138 8 15.8181 8C13.6223 8 11.8423 9.7646 11.8423 11.9413C11.8423 13.3867 12.6271 14.6503 13.7973 15.3363C10.6621 16.2096 8.36353 19.0645 8.36353 22.4516C8.36353 22.9051 8.73436 23.2727 9.19181 23.2727C9.64926 23.2727 10.0201 22.9051 10.0201 22.4516C10.0201 19.2772 12.6159 16.7038 15.8181 16.7038C19.0202 16.7038 21.6161 19.2772 21.6161 22.4516C21.6161 22.9051 21.9869 23.2727 22.4443 23.2727C22.9018 23.2727 23.2726 22.9051 23.2726 22.4516C23.2726 19.0645 20.974 16.2096 17.8389 15.3363ZM18.1373 11.9413C18.1373 13.2111 17.0989 14.2405 15.8181 14.2405C14.5372 14.2405 13.4989 13.2111 13.4989 11.9413C13.4989 10.6716 14.5372 9.64223 15.8181 9.64223C17.0989 9.64223 18.1373 10.6716 18.1373 11.9413Z" fill="#10387B"/>
</svg>
